<svg xmlns="http://www.w3.org/2000/svg" width="20.611" height="20.612" viewBox="0 0 20.611 20.612">
  <g id="exclamation_11248969" transform="translate(0 0)">
    <ellipse id="Ellipse_42" data-name="Ellipse 42" cx="1.387" cy="1.387" rx="1.387" ry="1.387" transform="translate(8.919 14.627)"/>
    <path id="Path_181" data-name="Path 181" d="M28.553,11.347a1.811,1.811,0,0,0-1.8,1.83l.593,7.764a1.21,1.21,0,0,0,2.42.026l.595-7.816A1.807,1.807,0,0,0,28.553,11.347Z" transform="translate(-18.248 -8.136)"/>
    <path id="Path_182" data-name="Path 182" d="M12.306,2A10.306,10.306,0,1,0,22.611,12.306,10.306,10.306,0,0,0,12.306,2Zm0,19.924a9.619,9.619,0,1,1,9.619-9.619A9.619,9.619,0,0,1,12.306,21.924Z" transform="translate(-2 -2)"/>
  </g>
</svg>
