<svg xmlns="http://www.w3.org/2000/svg" width="17.958" height="20.281" viewBox="0 0 17.958 20.281">
  <g id="document_10103871" transform="translate(0 0)">
    <path id="Path_176" data-name="Path 176" d="M14.4,20.833H7.225A2.175,2.175,0,0,1,5.052,18.66V5.622A2.175,2.175,0,0,1,7.225,3.449h10.14a2.175,2.175,0,0,1,2.173,2.173V15.979a.724.724,0,1,0,1.449,0V5.622A3.626,3.626,0,0,0,17.366,2H7.225A3.626,3.626,0,0,0,3.6,5.622V18.66a3.626,3.626,0,0,0,3.622,3.622H14.4a.724.724,0,0,0,0-1.449Z" transform="translate(-3.604 -2)"/>
    <path id="Path_177" data-name="Path 177" d="M18.02,15H9.328a.724.724,0,0,0,0,1.449H18.02a.724.724,0,0,0,0-1.449Z" transform="translate(-4.982 -5.584)"/>
    <path id="Path_178" data-name="Path 178" d="M18.02,10H9.328a.724.724,0,0,0,0,1.449H18.02a.724.724,0,0,0,0-1.449Z" transform="translate(-4.982 -4.205)"/>
    <path id="Path_179" data-name="Path 179" d="M18.02,20H9.328a.724.724,0,0,0,0,1.449H18.02a.724.724,0,0,0,0-1.449Z" transform="translate(-4.982 -6.962)"/>
    <path id="Path_180" data-name="Path 180" d="M21.024,25.544a.74.74,0,0,0,0,1.024l1.468,1.467a.724.724,0,0,0,1.024,0L26.1,25.456a.724.724,0,1,0-1.024-1.024L23,26.5l-.956-.955a.75.75,0,0,0-1.024,0Z" transform="translate(-8.349 -8.125)"/>
  </g>
</svg>
