<svg xmlns="http://www.w3.org/2000/svg" width="23.485" height="21.617" viewBox="0 0 23.485 21.617">
  <path id="heart_1216575" d="M16.3,0a6.2,6.2,0,0,0-5.059,2.634A6.2,6.2,0,0,0,6.183,0,6.546,6.546,0,0,0,0,6.558c0,3.4,1.922,6.911,5.56,10.141a29.91,29.91,0,0,0,5.511,3.871.375.375,0,0,0,.344,0A29.913,29.913,0,0,0,16.924,16.7c3.639-3.23,5.562-6.736,5.562-10.141A6.546,6.546,0,0,0,16.3,0ZM11.243,19.811C9.866,19.051.75,13.744.75,6.558A5.778,5.778,0,0,1,6.183.749a5.445,5.445,0,0,1,4.733,2.77.39.39,0,0,0,.653,0A5.445,5.445,0,0,1,16.3.749a5.778,5.778,0,0,1,5.434,5.809c0,7.186-9.117,12.493-10.493,13.252Zm0,0" transform="translate(0.5 0.5)" stroke="#000" stroke-width="1"/>
</svg>
