<svg xmlns="http://www.w3.org/2000/svg" width="18.273" height="25.182" viewBox="0 0 18.273 25.182">
  <g id="Group_83" data-name="Group 83" transform="translate(0.5 0.5)">
    <path id="Path_173" data-name="Path 173" d="M174.985,85.333a4.318,4.318,0,1,0,4.318,4.318A4.323,4.323,0,0,0,174.985,85.333Zm0,7.773a3.455,3.455,0,1,1,3.455-3.455A3.459,3.459,0,0,1,174.985,93.106Z" transform="translate(-166.349 -81.015)" stroke="#000" stroke-width="1"/>
    <path id="Path_174" data-name="Path 174" d="M93.97,0a8.646,8.646,0,0,0-8.637,8.637,11.255,11.255,0,0,0,1.8,5.416l6.474,9.933a.432.432,0,0,0,.724,0l6.456-9.9a11.377,11.377,0,0,0,1.819-5.452A8.646,8.646,0,0,0,93.97,0Zm6.1,13.613-6.1,9.347-6.115-9.383A10.526,10.526,0,0,1,86.2,8.637a7.773,7.773,0,1,1,15.546,0A10.688,10.688,0,0,1,100.066,13.613Z" transform="translate(-85.333 0)" stroke="#000" stroke-width="1"/>
  </g>
</svg>
