<svg xmlns="http://www.w3.org/2000/svg" width="20" height="19.207" viewBox="0 0 20 19.207">
  <g id="Group_804" data-name="Group 804" transform="translate(3664.765 9147.448)">
    <path id="Path_4516" data-name="Path 4516" d="M433.949,17.06c0,.757-.184.987-.776,1.109L427,19.444c-.7.145-1.126-.009-1.138-1.036V1.365C425.869.339,426.293.185,427,.33L433.173,1.6c.592.122.776.352.776,1.109Z" transform="translate(-4078.714 -9147.731)" fill-rule="evenodd"/>
    <path id="Path_4517" data-name="Path 4517" d="M433.949,17.06c0,.757-.184.987-.776,1.109L427,19.444c-.7.145-1.126-.009-1.138-1.036V1.365C425.869.339,426.293.185,427,.33L433.173,1.6c.592.122.776.352.776,1.109Z" transform="translate(-4078.714 -9147.731)"/>
    <path id="Subtraction_3" data-name="Subtraction 3" d="M8.747,16.447H2a1.983,1.983,0,0,1-.779-.158A2.018,2.018,0,0,1,.158,15.222,1.983,1.983,0,0,1,0,14.443V11.13H1.451v3.313a.542.542,0,0,0,.044.214.563.563,0,0,0,.3.3A.542.542,0,0,0,2,15H8.747a.542.542,0,0,0,.214-.044.563.563,0,0,0,.3-.3.542.542,0,0,0,.044-.214V2a.542.542,0,0,0-.044-.214.563.563,0,0,0-.3-.3.542.542,0,0,0-.214-.044H2a.542.542,0,0,0-.214.044.563.563,0,0,0-.3.3A.542.542,0,0,0,1.451,2V5.317H0V2a1.983,1.983,0,0,1,.158-.779A2.018,2.018,0,0,1,1.225.158,1.983,1.983,0,0,1,2,0H8.747a1.983,1.983,0,0,1,.779.158,2.018,2.018,0,0,1,1.067,1.067A1.983,1.983,0,0,1,10.751,2V14.443a1.983,1.983,0,0,1-.158.779,2.018,2.018,0,0,1-1.067,1.067A1.983,1.983,0,0,1,8.747,16.447Z" transform="translate(-3660.093 -9146.068)"/>
    <rect id="Rectangle_351" data-name="Rectangle 351" width="4.924" height="3.186" transform="translate(-3661.774 -9139.438)"/>
    <path id="Path_4519" data-name="Path 4519" d="M.087,242.6l3.233,2.673a.241.241,0,0,0,.395-.186v-5.346a.241.241,0,0,0-.395-.186L.087,242.225a.241.241,0,0,0,0,.371" transform="translate(-3664.765 -9380.256)" fill-rule="evenodd"/>
  </g>
</svg>
