<svg xmlns="http://www.w3.org/2000/svg" width="27.254" height="13.84" viewBox="0 0 27.254 13.84">
  <g id="Group_972" data-name="Group 972" transform="translate(0 0)">
    <path id="Path_4672" data-name="Path 4672" d="M-50.54,24.808c.185.185.392.339.583.53.954.874,1.791,1.892,2.686,2.824a6.956,6.956,0,0,0,.6.583,2.64,2.64,0,0,0,4.122-2.9,5.527,5.527,0,0,0-.53-1.06c-.191-.117-.355-.276-.53-.4-2.3-1.68-4.313-1.59-6.565.122-.122.1-.233.2-.35.3" transform="translate(69.655 -15.48)"/>
    <path id="Path_4673" data-name="Path 4673" d="M-78.475,24.808c-.185.185-.392.339-.583.53-.959.874-1.791,1.892-2.686,2.824a6.958,6.958,0,0,1-.6.583,2.643,2.643,0,0,1-4.128-2.9,5.881,5.881,0,0,1,.53-1.06c.191-.117.355-.276.53-.4,2.31-1.68,4.318-1.59,6.565.122.127.1.238.2.355.3" transform="translate(86.617 -15.48)"/>
    <path id="Path_4674" data-name="Path 4674" d="M-61.36,14.936h0L-64.073,10.7h0a7.45,7.45,0,0,0-.991-1.272,2.734,2.734,0,0,0-3.561-.212,3.179,3.179,0,0,0-.636.774l-3.11,4.869-3.1-4.869a3.179,3.179,0,0,0-.673-.747,2.729,2.729,0,0,0-3.561.212,7.19,7.19,0,0,0-.991,1.272h0l-2.713,4.239h0c-.652,1-1.293,2.008-1.918,3.031.191-.117.355-.276.53-.408,2.31-1.674,4.318-1.59,6.565.127.127.1.238.2.355.3a39.15,39.15,0,0,1,3.232,3.264,3.109,3.109,0,0,0,2.013,1.2h.477a3.107,3.107,0,0,0,2.019-1.2,38.35,38.35,0,0,1,3.232-3.264c.117-.1.228-.2.35-.3,2.252-1.7,4.239-1.8,6.565-.127.185.132.35.291.53.408-.625-1.023-1.272-2.029-1.918-3.031" transform="translate(86.012 -8.654)" fill="#575757"/>
  </g>
</svg>
