<svg xmlns="http://www.w3.org/2000/svg" width="31.626" height="26.223" viewBox="0 0 31.626 26.223">
  <g id="Group_116" data-name="Group 116" transform="translate(-717.317 -2117.072)">
    <g id="french-fries_1_" transform="translate(717.82 2122.256)">
      <g id="Group_15" data-name="Group 15">
        <path id="Path_40" data-name="Path 40" d="M3.046,7.713,1.663,2.647,0,2.5,1.337,6.45l.122.107A15.964,15.964,0,0,0,3.046,7.713Z" transform="translate(0 -0.544)" fill="none" stroke="#000" stroke-width="0.7"/>
        <path id="Path_41" data-name="Path 41" d="M5.553,1.592,3.645,1.248,4.8,8.012a12.141,12.141,0,0,0,1.574.725Z" transform="translate(-0.793 -0.271)" fill="none" stroke="#000" stroke-width="0.7"/>
        <path id="Path_42" data-name="Path 42" d="M9.428,4.283,7.52,3.5l.574,6a6.228,6.228,0,0,0,1.486.21Z" transform="translate(-1.635 -0.761)" fill="none" stroke="#000" stroke-width="0.7"/>
        <path id="Path_43" data-name="Path 43" d="M12.765,2.5,11.4,3.136l-.225,6.3A7.493,7.493,0,0,0,12.5,9.122Z" transform="translate(-2.429 -0.544)" fill="none" stroke="#000" stroke-width="0.7"/>
        <path id="Path_44" data-name="Path 44" d="M16.068,1.125,14.6,0l-.61,8.244a13.513,13.513,0,0,0,1.3-.66Z" transform="translate(-3.042)" fill="none" stroke="#000" stroke-width="0.7"/>
        <path id="Path_45" data-name="Path 45" d="M19.041,2.71,17.692,1.438,16.567,7.461a16.057,16.057,0,0,0,1.449-1.05Z" transform="translate(-3.602 -0.313)" fill="none" stroke="#000" stroke-width="0.7"/>
      </g>
      <path id="Path_46" data-name="Path 46" d="M8.251,11.568c-3.457,0-7.043-3.13-7.043-3.13L3.556,22.524h9.391L15.294,8.438S11.708,11.568,8.251,11.568Z" transform="translate(-0.263 -1.835)" fill="none" stroke="#000" stroke-width="0.7"/>
    </g>
    <g id="_x38_4x84" transform="translate(735.464 2117.422)">
      <g id="Group_16" data-name="Group 16" transform="translate(0 0)">
        <path id="Path_47" data-name="Path 47" d="M31.963,52h9.162l1.963-18H30Z" transform="translate(-30 -26.474)" fill="none" stroke="#000" stroke-width="0.7"/>
        <path id="Path_48" data-name="Path 48" d="M59.184,11H57.875l-1.033,3.927h1.309Z" transform="translate(-48.059 -11)" fill="none" stroke="#000" stroke-width="0.7"/>
        <path id="Path_49" data-name="Path 49" d="M30,26H43.089v1.309H30Z" transform="translate(-30 -21.092)" fill="none" stroke="#000" stroke-width="0.7"/>
      </g>
    </g>
  </g>
</svg>
