<svg xmlns="http://www.w3.org/2000/svg" width="18.488" height="22.596" viewBox="0 0 18.488 22.596">
  <g id="Line" transform="translate(0 0)">
    <path id="Path_175" data-name="Path 175" d="M12.244,13.325a6.163,6.163,0,1,1,6.163-6.163A6.163,6.163,0,0,1,12.244,13.325Zm0-10.271a4.108,4.108,0,1,0,4.108,4.108A4.108,4.108,0,0,0,12.244,3.054ZM16.352,23.6H8.135A5.136,5.136,0,0,1,3,18.461,3.081,3.081,0,0,1,6.081,15.38H18.406a3.081,3.081,0,0,1,3.081,3.081A5.136,5.136,0,0,1,16.352,23.6ZM6.081,17.434a1.027,1.027,0,0,0-1.027,1.027,3.081,3.081,0,0,0,3.081,3.081h8.217a3.081,3.081,0,0,0,3.081-3.081,1.027,1.027,0,0,0-1.027-1.027Z" transform="translate(-3 -1)"/>
  </g>
</svg>
