<svg xmlns="http://www.w3.org/2000/svg" width="19.859" height="19.859" viewBox="0 0 19.859 19.859">
  <g id="remove-user_748138" transform="translate(0)">
    <g id="Group_1296" data-name="Group 1296" transform="translate(0)">
      <g id="Group_1295" data-name="Group 1295">
        <path id="Path_4725" data-name="Path 4725" d="M15.813,10.884A10.046,10.046,0,0,0,13.091,9.5a5.275,5.275,0,1,0-6.317,0A10.09,10.09,0,0,0,.051,17.017a2.357,2.357,0,0,0,2.3,2.842h8a.776.776,0,0,0,0-1.552h-8a.788.788,0,0,1-.621-.3.81.81,0,0,1-.164-.68,8.571,8.571,0,0,1,8.155-6.787q.1,0,.206,0t.207,0a8.473,8.473,0,0,1,4.77,1.6.776.776,0,1,0,.905-1.26Zm-5.694-1.89-.189,0-.188,0a3.723,3.723,0,1,1,.377,0Z" transform="translate(0)"/>
      </g>
    </g>
    <g id="Group_1298" data-name="Group 1298" transform="translate(13.266 13.265)">
      <g id="Group_1297" data-name="Group 1297">
        <path id="Path_4726" data-name="Path 4726" d="M346.394,345.3l1.973-1.973a.776.776,0,1,0-1.1-1.1L345.3,344.2l-1.973-1.973a.776.776,0,0,0-1.1,1.1L344.2,345.3l-1.973,1.973a.776.776,0,0,0,1.1,1.1l1.973-1.973,1.973,1.973a.776.776,0,1,0,1.1-1.1Z" transform="translate(-342 -341.999)"/>
      </g>
    </g>
  </g>
</svg>
