<svg xmlns="http://www.w3.org/2000/svg" width="21.007" height="16.992" viewBox="0 0 21.007 16.992">
  <path id="Path_4522" data-name="Path 4522" d="M229.121,263.942a1.726,1.726,0,0,1-1.65-1.941v-1.7q-.174,0-.345,0a10.978,10.978,0,0,0-7.019,2.141,1.745,1.745,0,0,1-1.086.425,1.333,1.333,0,0,1-1.025-.477,2.1,2.1,0,0,1-.386-1.624,11.249,11.249,0,0,1,1.976-4.982,9.8,9.8,0,0,1,3.239-2.809,12.787,12.787,0,0,1,4.647-1.41V249.89a1.726,1.726,0,0,1,1.65-1.94,2.007,2.007,0,0,1,1.329.563l2.181,1.949,1.177,1.052,2.965,2.65a2.368,2.368,0,0,1,0,3.564l-2.431,2.173-1.067.954-2.825,2.525a2.006,2.006,0,0,1-1.329.563m-1.995-4.63c.281,0,.57.007.859.021l.467.022V262c0,.707.345.959.668.959a1.055,1.055,0,0,0,.675-.313l2.825-2.525,1.068-.954L236.119,257a1.387,1.387,0,0,0,0-2.1l-2.965-2.65-1.176-1.051-2.182-1.95a1.056,1.056,0,0,0-.675-.313c-.323,0-.668.252-.668.959v2.571l-.455.033a11.931,11.931,0,0,0-4.7,1.334,8.823,8.823,0,0,0-2.918,2.528,10.282,10.282,0,0,0-1.8,4.552,1.122,1.122,0,0,0,.162.834.361.361,0,0,0,.28.134.851.851,0,0,0,.476-.212,11.94,11.94,0,0,1,7.629-2.353" transform="translate(-217.074 -247.45)" stroke="#000" stroke-width="1"/>
</svg>
