<svg xmlns="http://www.w3.org/2000/svg" width="20" height="24.524" viewBox="0 0 20 24.524">
  <g id="Group_802" data-name="Group 802" transform="translate(4585.999 7786.071)">
    <path id="Path_4503" data-name="Path 4503" d="M19.987,9.269c0,1.218-.035,2.438.007,3.654a9.031,9.031,0,0,1-3.54,7.6A32.574,32.574,0,0,1,11.6,23.769c-.379.214-.763.418-1.144.626a.882.882,0,0,1-.9.015,31.229,31.229,0,0,1-6.618-4.424A8.584,8.584,0,0,1,.008,13.432C.011,10.491.016,7.55,0,4.609a.891.891,0,0,1,.641-.943Q5.1,1.892,9.548.09a1.13,1.13,0,0,1,.9.009q4.452,1.794,8.91,3.572a.89.89,0,0,1,.633.951c-.02,1.549-.007,3.1-.007,4.646M1.445,4.9c-.01.16-.024.281-.024.4,0,2.664-.013,5.328.006,7.992a7.654,7.654,0,0,0,.433,2.562,8.482,8.482,0,0,0,2.56,3.5,30.094,30.094,0,0,0,5.257,3.481.561.561,0,0,0,.628,0c1.043-.629,2.105-1.227,3.133-1.879a16.019,16.019,0,0,0,2.991-2.432,7.329,7.329,0,0,0,2.125-5.282c-.007-2.612,0-5.224,0-7.835,0-.17-.016-.341-.024-.5-.1-.049-.16-.084-.224-.11q-4-1.605-7.989-3.213a.785.785,0,0,0-.649.007c-.625.263-1.259.506-1.888.759L1.445,4.9" transform="translate(-4586 -7786.072)"/>
    <path id="Path_4504" data-name="Path 4504" d="M112.62,138c-.223.233-.395.421-.576.6-.471.463-.936.932-1.424,1.376a.656.656,0,0,0-.221.688c.171.9.314,1.806.479,2.774-.171-.068-.295-.105-.407-.164-.678-.354-1.364-.693-2.024-1.077a.8.8,0,0,0-.9-.011c-.767.438-1.559.832-2.429,1.29.07-.471.123-.859.186-1.246.087-.531.161-1.066.282-1.59a.648.648,0,0,0-.24-.684c-.605-.574-1.2-1.159-1.8-1.742-.049-.048-.091-.1-.166-.19a1.381,1.381,0,0,1,.277-.109c.808-.118,1.616-.236,2.425-.34a.742.742,0,0,0,.666-.476c.27-.621.589-1.22.889-1.828.1-.2.2-.4.332-.663.1.166.176.272.233.386.349.7.708,1.394,1.033,2.1a.751.751,0,0,0,.665.478c.827.1,1.652.227,2.477.344a2.227,2.227,0,0,1,.245.077" transform="translate(-4683.996 -7913.671)"/>
  </g>
</svg>
