<svg xmlns="http://www.w3.org/2000/svg" width="22.576" height="22.576" viewBox="0 0 22.576 22.576">
  <path id="worldwide_13378960" d="M11.288,22.576A11.288,11.288,0,1,0,0,11.288,11.3,11.3,0,0,0,11.288,22.576Zm-7.8-4.214a18.144,18.144,0,0,1,2.977-.918,16.418,16.418,0,0,0,1.621,3.88,10.562,10.562,0,0,1-4.6-2.962Zm7.424-2.174a23.549,23.549,0,0,0-3.9.377,22.341,22.341,0,0,1-.608-4.9h4.509Zm0,.753v4.873a10.5,10.5,0,0,1-1.757-.208A14.869,14.869,0,0,1,7.2,17.295a22.773,22.773,0,0,1,3.708-.354Zm.753,0a22.769,22.769,0,0,1,3.708.354,14.854,14.854,0,0,1-1.951,4.311,10.5,10.5,0,0,1-1.757.208Zm0-.753V11.664h4.509a22.312,22.312,0,0,1-.608,4.9,23.516,23.516,0,0,0-3.9-.377Zm5.262-4.524h4.888a10.475,10.475,0,0,1-2.219,6.093A18.72,18.72,0,0,0,16.3,16.716a23.056,23.056,0,0,0,.624-5.052Zm0-.753A23.1,23.1,0,0,0,16.3,5.86a18.752,18.752,0,0,0,3.293-1.041,10.476,10.476,0,0,1,2.219,6.093Zm-.753,0H11.664V6.388a23.549,23.549,0,0,0,3.9-.377A22.341,22.341,0,0,1,16.174,10.912ZM11.664,5.635V.762A10.5,10.5,0,0,1,13.421.97a14.869,14.869,0,0,1,1.951,4.311,22.773,22.773,0,0,1-3.708.354Zm-.753,0A22.769,22.769,0,0,1,7.2,5.281,14.854,14.854,0,0,1,9.155.97,10.5,10.5,0,0,1,10.912.762Zm0,.753v4.524H6.4a22.312,22.312,0,0,1,.608-4.9,23.517,23.517,0,0,0,3.9.377ZM5.65,10.912H.762A10.475,10.475,0,0,1,2.981,4.819,18.72,18.72,0,0,0,6.274,5.86,23.056,23.056,0,0,0,5.65,10.912Zm0,.753a23.1,23.1,0,0,0,.624,5.052,18.752,18.752,0,0,0-3.293,1.041A10.476,10.476,0,0,1,.762,11.664Zm8.84,9.66a16.387,16.387,0,0,0,1.621-3.88,18.119,18.119,0,0,1,2.977.918A10.562,10.562,0,0,1,14.491,21.324Zm4.6-17.11a18.144,18.144,0,0,1-2.977.918,16.418,16.418,0,0,0-1.621-3.88A10.562,10.562,0,0,1,19.089,4.214Zm-11-2.962a16.387,16.387,0,0,0-1.621,3.88,18.119,18.119,0,0,1-2.977-.918A10.562,10.562,0,0,1,8.086,1.252Z"/>
</svg>
